<?xml version="1.0" encoding="UTF-8" standalone="no"?>
<svg
   xmlns:dc="http://purl.org/dc/elements/1.1/"
   xmlns:cc="http://creativecommons.org/ns#"
   xmlns:rdf="http://www.w3.org/1999/02/22-rdf-syntax-ns#"
   xmlns:svg="http://www.w3.org/2000/svg"
   xmlns="http://www.w3.org/2000/svg"
   xmlns:sodipodi="http://sodipodi.sourceforge.net/DTD/sodipodi-0.dtd"
   xmlns:inkscape="http://www.inkscape.org/namespaces/inkscape"
   width="200mm"
   height="200mm"
   viewBox="0 0 200 200"
   version="1.1"
   id="svg8"
   sodipodi:docname="logo.svg"
   inkscape:version="1.0.2-2 (e86c870879, 2021-01-15)">
  <defs
     id="defs2">
    <filter
       style="color-interpolation-filters:sRGB"
       inkscape:label="Invert"
       id="filter1091">
      <feColorMatrix
         type="hueRotate"
         values="180"
         result="color1"
         id="feColorMatrix1087" />
      <feColorMatrix
         values="-1 0 0 0 1 0 -1 0 0 1 0 0 -1 0 1 -0.21 -0.72 -0.07 2 0 "
         result="color2"
         id="feColorMatrix1089" />
    </filter>
    <filter
       style="color-interpolation-filters:sRGB"
       inkscape:label="Invert"
       id="filter1103">
      <feComponentTransfer
         id="feComponentTransfer1101"
         result="fbSourceGraphic">
        <feFuncR
           type="identity"
           tableValues="1 0"
           id="feFuncR1093" />
        <feFuncG
           type="identity"
           tableValues="1 0"
           id="feFuncG1095" />
        <feFuncB
           type="identity"
           tableValues="1 0"
           id="feFuncB1097" />
        <feFuncA
           type="identity"
           tableValues="0 1"
           id="feFuncA1099" />
      </feComponentTransfer>
      <feColorMatrix
         result="fbSourceGraphicAlpha"
         in="fbSourceGraphic"
         values="0 0 0 -1 0 0 0 0 -1 0 0 0 0 -1 0 0 0 0 1 0"
         id="feColorMatrix1399" />
      <feColorMatrix
         id="feColorMatrix1401"
         values="0"
         type="saturate"
         result="colormatrix1"
         in="fbSourceGraphic" />
      <feColorMatrix
         id="feColorMatrix1403"
         values="1 0 0 0 0 0 1 0 0 0 0 0 1 0 0 10 10 10 10 0 "
         in="fbSourceGraphic"
         result="colormatrix2" />
      <feFlood
         id="feFlood1405"
         flood-color="rgb(0,255,255)"
         flood-opacity="1"
         result="flood" />
      <feComposite
         in2="colormatrix2"
         id="feComposite1407"
         operator="out"
         result="composite1" />
      <feMerge
         id="feMerge1409"
         result="merge">
        <feMergeNode
           id="feMergeNode1411"
           in="colormatrix1" />
        <feMergeNode
           id="feMergeNode1413"
           in="composite1" />
      </feMerge>
      <feComposite
         in2="fbSourceGraphic"
         id="feComposite1415"
         in="merge"
         operator="in"
         result="fbSourceGraphic" />
      <feColorMatrix
         result="fbSourceGraphicAlpha"
         in="fbSourceGraphic"
         values="0 0 0 -1 0 0 0 0 -1 0 0 0 0 -1 0 0 0 0 1 0"
         id="feColorMatrix1449" />
      <feColorMatrix
         id="feColorMatrix1451"
         type="hueRotate"
         values="180"
         result="color1"
         in="fbSourceGraphic" />
      <feColorMatrix
         id="feColorMatrix1453"
         values="-1 0 0 0 1 0 -1 0 0 1 0 0 -1 0 1 -0.21 -0.72 -0.07 2 0 "
         result="color2" />
    </filter>
    <filter
       style="color-interpolation-filters:sRGB"
       inkscape:label="Invert"
       id="filter1459">
      <feColorMatrix
         type="hueRotate"
         values="180"
         result="color1"
         id="feColorMatrix1455" />
      <feColorMatrix
         values="-1 0 0 0 1 0 -1 0 0 1 0 0 -1 0 1 -0.21 -0.72 -0.07 2 0 "
         result="color2"
         id="feColorMatrix1457" />
    </filter>
    <filter
       style="color-interpolation-filters:sRGB"
       inkscape:label="Invert"
       id="filter1841">
      <feColorMatrix
         type="hueRotate"
         values="180"
         result="color1"
         id="feColorMatrix1837" />
      <feColorMatrix
         values="-1 0 0 0 1 0 -1 0 0 1 0 0 -1 0 1 -0.21 -0.72 -0.07 2 0 "
         result="color2"
         id="feColorMatrix1839" />
    </filter>
  </defs>
  <sodipodi:namedview
     id="base"
     pagecolor="#ffffff"
     bordercolor="#666666"
     borderopacity="1.0"
     inkscape:pageopacity="0.0"
     inkscape:pageshadow="2"
     inkscape:zoom="0.62240079"
     inkscape:cx="-68.023971"
     inkscape:cy="415.70353"
     inkscape:document-units="mm"
     inkscape:current-layer="layer1"
     inkscape:document-rotation="0"
     showgrid="false"
     inkscape:window-width="2560"
     inkscape:window-height="1009"
     inkscape:window-x="-8"
     inkscape:window-y="-8"
     inkscape:window-maximized="1" />
  <metadata
     id="metadata5">
    <rdf:RDF>
      <cc:Work
         rdf:about="">
        <dc:format>image/svg+xml</dc:format>
        <dc:type
           rdf:resource="http://purl.org/dc/dcmitype/StillImage" />
        <dc:title></dc:title>
      </cc:Work>
    </rdf:RDF>
  </metadata>
  <g
     inkscape:groupmode="layer"
     id="layer2"
     inkscape:label="Capa 2" />
  <g
     inkscape:label="Capa 1"
     inkscape:groupmode="layer"
     id="layer1">
    <g
       id="g2057"
       transform="matrix(0.76255196,0,0,0.76246037,23.053525,-19.543023)"
       style="stroke-width:1.31147">
      <g
         fill="#ffffff"
         id="g1811"
         style="stroke:#ffffff;stroke-width:1.54943;stroke-opacity:1;filter:url(#filter1841)"
         transform="matrix(0.26458333,0,0,0.26458333,-29.70387,2.0643226)">
        <path
           d="m 480.46195,892.75714 c -7.55309,-2.5 -12.53126,-12.6 -10.64299,-21.4 0.51499,-2.3 2.14577,-5.9 3.60488,-8 5.14984,-7.3 -8.06807,-6.8 161.0181,-6.6 137.58635,0.2 152.52087,0.4 154.92412,1.8 7.46726,4.5 11.2438,15.5 8.32556,24.4 -1.20162,3.9 -5.83647,8.7 -9.35552,9.9 -3.94821,1.3 -304.09761,1.2 -307.87415,-0.1 z"
           id="path1793"
           style="stroke:#ffffff;stroke-width:1.31146;stroke-opacity:1" />
        <path
           d="m 184,838.9 c -25.5,-1.2 -62.3,-4.8 -70.3,-7 -5.4,-1.4 -9.3,-5.9 -11.3,-12.7 -1.5,-5.2 -1.5,-6 0,-10.9 2.1,-6.4 7.1,-11.8 12.3,-13.2 2.1,-0.6 16,-1.5 30.8,-2.1 26.3,-1 34.9,-1.8 59.8,-6 29.3,-4.9 60.5,-15.6 101,-34.6 12.4,-5.9 16.5,-7.4 18.7,-6.9 3,0.7 8,-1.5 23,-10 4.1,-2.3 17,-9.3 28.5,-15.5 57.1,-30.8 71.6,-39.5 102.4,-61.3 26.7,-19 54.9,-43.3 77.5,-66.8 11.8,-12.3 45.6,-50.8 57.9,-66.1 l 3.8,-4.6 -4.6,-3.2 c -13.2,-9.1 -42.4,-17.7 -66,-19.5 -4.4,-0.3 -9.6,-0.8 -11.5,-1 -3.2,-0.4 -3.7,-0.1 -5.7,3.5 -3.1,5.3 -11.3,24.5 -12,28.1 l -0.5,2.9 h 10.3 c 10.8,0.1 12.6,0.6 14.7,4.7 1.7,3.2 1.5,6.8 -0.7,9.4 -1.9,2.4 -2.2,2.4 -16.3,2.1 l -14.3,-0.3 -2.9,4.8 c -1.6,2.6 -5.4,9.1 -8.3,14.3 -3,5.2 -6.4,10.9 -7.6,12.7 l -2.1,3.1 -5.3,-9.8 -5.3,-9.9 1.6,-4.8 c 2.5,-7.3 22.1,-55.7 26.5,-65.1 l 3.8,-8.3 -4.7,-9.7 c -2.6,-5.3 -4.7,-9.8 -4.8,-10 -0.1,-0.1 -5.5,2.4 -12,5.6 -6.5,3.2 -14.5,6.9 -17.8,8.2 l -5.8,2.3 -5.6,-1.8 c -3,-1.1 -8.9,-3.9 -13.1,-6.3 -4.2,-2.4 -9.3,-5.2 -11.3,-6.3 l -3.7,-1.9 -1.7,3.2 c -0.9,1.8 -3.7,6.3 -6.2,10.1 l -4.5,6.7 3.8,9.3 c 11.1,27 22.8,54.8 25,59.5 1.4,2.9 2.5,6.2 2.5,7.4 0,2.5 -8.5,20.1 -10.5,21.8 -1.8,1.5 -5,-3.3 -14.3,-21.7 L 420.5,548 h -12.2 c -10.9,0 -12.5,-0.2 -14.3,-2 -1.1,-1.1 -2.2,-3 -2.6,-4.4 -0.6,-2.5 1.6,-7.9 3.8,-9.2 0.6,-0.4 5.4,-0.7 10.5,-0.6 5.1,0 9.3,-0.1 9.3,-0.4 0,-0.9 -5.4,-14.5 -9.1,-23.1 l -4.1,-9.3 h -8.7 c -30.8,0.1 -57.4,5.3 -75.6,14.8 -12,6.3 -25.7,21 -31.5,33.7 -3.5,7.5 -5.3,15.5 -3.6,15.9 0.6,0.2 4.3,0.8 8.2,1.4 25.6,4 48.9,19.9 59.6,40.7 7.4,14.5 7.3,13.8 7.3,68.7 0,47.4 -0.1,48.8 -2,50.2 -1.1,0.8 -7.4,4.5 -13.9,8.2 l -12,6.7 -10,-3.3 c -23.9,-7.7 -60.2,-25.1 -67.9,-32.4 -8.3,-8 -14.7,-22.1 -14.7,-32.6 0,-3.3 0.9,-9.9 2,-14.7 2.4,-10 9.4,-47.9 14.5,-77.7 1.9,-11.1 4.6,-23.7 6,-28.1 9.2,-27.6 28,-48.2 57,-62.5 19.8,-9.8 43.5,-15.5 74.8,-18.1 11.9,-1 15,-1.5 15.5,-2.8 0.3,-0.9 2.5,-4.8 4.8,-8.8 l 4.3,-7.2 -7.2,-7.8 c -12.8,-13.9 -17.2,-21.1 -20.7,-33.4 -1.7,-6.2 -2,-10.3 -2,-26.4 0,-17.1 -0.2,-19.5 -2,-23 -1.1,-2.2 -2,-4 -2,-4.2 0,-0.8 15.8,-10.7 22.6,-14.1 17.5,-8.8 16,-8.6 60,-9 33,-0.3 40.1,-0.1 45.9,1.3 9.4,2.2 28.9,10.8 35.1,15.6 2.8,2.1 5.6,3.9 6.2,3.9 1.5,0 1.5,-0.1 -0.7,4.3 -1.5,3 -2,7 -2.6,23.4 -0.3,11 -1.3,22.7 -2.1,26.3 -2.3,10.2 -8.3,21.4 -17.3,32.2 -4.5,5.4 -8.1,10 -8.1,10.4 0,0.3 1.8,4.5 4.1,9.3 l 4.1,8.8 11.1,0.6 c 13.9,0.7 26.7,2.9 42.2,7.4 27.6,7.9 57.7,22.5 68.4,33.2 8.8,8.8 10.3,16.9 4.9,27.6 -5.2,10.5 -29.7,42.2 -48.8,63 -25.6,28.1 -63.2,63.6 -83.4,79 -2.9,2.2 -9.1,7 -13.7,10.6 -10.3,8.1 -30.3,21.5 -50.9,34.1 -41.1,25.2 -108.7,59.4 -131.3,66.4 -2.7,0.9 -4.6,1.8 -4.3,2.1 0.3,0.3 6.1,0.1 12.8,-0.6 6.8,-0.6 17,-1.6 22.8,-2.2 63.6,-6.2 119.1,-21.2 165,-44.5 57.5,-29.2 108,-73.1 147.6,-128.2 23.3,-32.6 40,-65.1 59,-114.8 9.8,-25.7 26.4,-72.1 29.8,-83.2 l 0.7,-2.2 -33.7,0.5 -33.7,0.5 6.9,-6.3 c 9,-8.2 22.5,-20.1 29.4,-25.7 4.4,-3.7 33.9,-29.3 75.7,-66 22.3,-19.6 27.3,-23.9 31.1,-26.8 2.3,-1.9 4.2,-3 4.2,-2.5 0,2 -3.3,16.7 -6,26.3 -11.5,42 -14.9,53.9 -20.7,72 -3.6,11.3 -7.4,23.2 -8.4,26.5 -2.7,9 -20.8,62.4 -28.8,84.8 -22.1,62 -51.8,119.5 -79.9,154.7 -4.2,5.2 -10.1,12.7 -13.2,16.5 -8.3,10.6 -39,41.4 -52,52.4 -37.5,31.5 -76.1,55.1 -119.5,73.1 -35.1,14.5 -60.6,21.9 -105,30.4 -30,5.7 -68.9,9.7 -112.3,11.6 -25.8,1.1 -86.6,1.1 -111.2,-0.1 z m 148.8,-181.4 -0.3,-30 -3.2,-6.7 c -3.9,-8.3 -10.9,-15.3 -20.1,-20.1 -7.6,-4 -20.6,-8.3 -28,-9.3 l -4.9,-0.6 -6.6,33.8 c -7.6,39.4 -8.1,42.4 -6.7,47.6 1.5,5.3 5.4,7.9 27.7,18.1 10.3,4.7 24,11.2 30.3,14.5 l 11.5,5.9 0.3,-11.6 c 0.1,-6.4 0.1,-25.1 0,-41.6 z M 483.5,447 c 12.8,-4.8 29.4,-19 34.9,-29.8 5.1,-10 5.9,-15.2 6,-37.2 l 0.1,-20.5 -43,0.2 c -23.6,0.2 -48.4,0.3 -55.1,0.3 h -12 l -1,4.3 c -0.7,3.2 -1.4,4.3 -3.1,4.5 -1.3,0.2 -2.3,0.9 -2.4,1.5 0,0.7 0,7.2 0.1,14.5 0.1,10.8 0.5,14.4 2.1,18.8 5.5,14.7 22.8,34.3 35.9,40.7 4.1,2 9.8,4 12.5,4.6 7.3,1.5 18.1,0.6 25,-1.9 z"
           id="path1795"
           style="stroke:#ffffff;stroke-width:1.31147;stroke-opacity:1" />
        <path
           d="m 663.71429,794.22857 c -13.5,-3.8 -18.7,-21.5 -8.9,-30.5 6.2,-5.6 1.8,-5.4 106.8,-5.5 90.1,-0.1 96.9,0.1 100.1,1.7 7.7,3.9 11,8.8 11,16.3 0,10.3 -5.1,16.2 -15.4,18.1 -7.8,1.4 -188.5,1.4 -193.6,-0.1 z"
           id="path1797"
           style="stroke:#ffffff;stroke-width:1.31147;stroke-opacity:1" />
        <path
           d="m 401.4,585 c -8,-3.2 -8.4,-14.9 -0.7,-18.5 6.9,-3.3 12.3,0.6 12.5,8.9 0.1,5.2 -1.5,8.4 -4.8,9.6 -3,1.2 -4.2,1.2 -7,0 z"
           id="path1799"
           style="stroke:#ffffff;stroke-width:1.31147;stroke-opacity:1" />
        <path
           d="m 522.8,584.3 c -5.6,-3.5 -6.3,-12.7 -1.3,-17 8.4,-7.3 19.4,4.3 14,14.6 -2.2,4.3 -7.9,5.3 -12.7,2.4 z"
           id="path1801"
           style="stroke:#ffffff;stroke-width:1.31147;stroke-opacity:1" />
        <path
           d="m 461.2,542.8 c -2.2,-5.1 -6.3,-15 -9.2,-22 -2.8,-6.9 -5.7,-13.4 -6.5,-14.5 -1.2,-1.6 -0.5,-2.3 9.3,-8 5.9,-3.5 11,-6.3 11.4,-6.3 0.6,0 18.2,10.3 21.7,12.7 0.2,0.1 -0.4,1 -1.3,1.9 -1.8,1.7 -5.8,10.1 -10.8,22.4 -10.7,26.4 -9.6,25.4 -14.6,13.8 z"
           id="path1803"
           style="stroke:#ffffff;stroke-width:1.31147;stroke-opacity:1" />
        <path
           d="m 365.8,334.8 c -2,-1.3 -4.9,-3.9 -6.4,-5.8 -4.6,-6 -13.4,-26.3 -12.1,-27.7 0.3,-0.3 1.8,0.4 3.3,1.6 4.3,3.4 15.7,6.4 21.8,5.8 9.8,-1 36,-12.5 48,-21.1 3.4,-2.4 9.4,-7.3 13.5,-11 12.9,-11.6 23.9,-16.3 36,-15.3 11.9,0.9 21,5.5 34.1,17.2 9.7,8.7 19.1,14.7 33.6,21.6 16.9,8 23.7,10.3 31.4,10.3 7,0.1 9.4,-1 15.9,-6.8 2.3,-2.1 3.2,-2.5 2.8,-1.3 -0.4,1 -1.4,4.3 -2.3,7.5 -3.3,11.6 -10,22.5 -15.5,25.3 -7.5,3.8 -14.7,2.2 -36.1,-7.9 -16.7,-8 -29,-15.7 -38.4,-24.3 C 482.3,291 475,287 466.2,287 c -7.6,0 -11.3,2.1 -22.2,12.7 -5.8,5.6 -11.6,11 -13,12.1 -4.9,3.8 -18.8,11 -34,17.7 -18.4,8.2 -24.8,9.3 -31.2,5.3 z"
           id="path1807"
           style="stroke:#ffffff;stroke-width:1.31147;stroke-opacity:1" />
      </g>
      <path
         d="m 758.27241,735.09324 c -0.79633,-0.43798 -1.83157,-1.51304 -2.389,-2.50845 -0.87597,-1.51304 -0.99542,-2.34919 -1.11487,-6.45031 l -0.15927,-4.65855 -2.78717,-1.39359 c -6.05213,-3.06588 -9.63564,-6.56975 -12.54226,-12.30336 -1.75193,-3.42423 -1.87138,-3.8224 -2.03065,-7.4059 -0.11945,-3.46406 -0.0796,-3.90204 0.79634,-5.13636 1.35376,-1.95102 2.74735,-2.8668 4.85763,-3.1057 4.41966,-0.51762 8.12261,2.03065 11.30795,7.72444 3.18533,5.77342 5.33543,7.64481 10.23289,9.11802 9.19766,2.70754 18.27586,-2.03065 16.52393,-8.6004 -0.9556,-3.58351 -3.94185,-5.13636 -14.13493,-7.40591 -10.07362,-2.18992 -19.03238,-6.09195 -23.21314,-10.03381 -4.14093,-3.90203 -6.13177,-9.43656 -5.2558,-14.85163 0.79633,-5.13635 2.90662,-9.19765 6.84847,-13.09969 2.18992,-2.11029 7.56518,-5.57434 8.71986,-5.57434 0.55743,0 0.7167,-0.55743 0.83615,-3.50387 0.11945,-3.14552 0.2389,-3.70295 1.23432,-4.97709 1.35377,-1.79175 2.94643,-2.66772 4.85764,-2.66772 3.18533,0 4.97708,2.74736 4.97708,7.56518 v 2.78717 h 2.18992 2.18992 v -3.22516 c 0,-2.11028 0.19908,-3.66313 0.63707,-4.5391 0.79633,-1.6723 2.90662,-2.74735 4.81782,-2.46863 3.26497,0.55743 4.73819,2.78716 4.93727,7.6448 l 0.15927,3.18534 1.83156,0.59725 c 4.18076,1.4334 9.994,5.7336 12.34318,9.15784 4.22057,6.09195 4.41965,13.61731 0.43798,15.80723 -2.34918,1.31395 -3.94185,1.47322 -6.84847,0.55743 -2.98625,-0.91578 -3.86222,-1.75193 -7.6448,-6.80865 -3.26497,-4.41966 -5.37526,-5.57434 -10.63106,-5.89287 -4.10112,-0.19909 -8.75968,0.63706 -10.86996,2.03065 -1.9112,1.27413 -3.62332,4.778 -3.38442,6.96792 0.35835,3.30479 2.18992,4.18075 13.81639,6.68921 12.90061,2.74735 20.54542,5.53452 23.81039,8.64022 1.99083,1.9112 4.10112,5.29562 4.93727,8.00316 1.47322,4.57892 0.83615,11.90519 -1.35377,16.56374 -1.07505,2.18992 -4.57892,5.93269 -7.04755,7.52536 -2.15011,1.39358 -6.80866,3.22515 -8.16243,3.22515 -0.91578,0 -0.91578,0.0796 -1.11486,4.69837 -0.2389,5.25581 -0.75652,6.80866 -2.82699,8.04298 -1.63248,1.03523 -3.62332,0.99541 -5.2558,0 -2.03066,-1.23432 -2.58809,-2.86681 -2.58809,-7.52536 v -4.02149 h -2.30937 -2.34918 l 0.19908,1.83157 c 0.0796,0.99542 0.0398,3.18534 -0.11945,4.85764 -0.2389,2.70753 -0.43798,3.18533 -1.59267,4.34002 -1.55285,1.55285 -3.54368,1.75193 -5.77342,0.59725 z"
         id="path1805-7"
         style="fill:#ffffff;fill-opacity:1;fill-rule:nonzero;stroke:#ffffff;stroke-width:0.630586;stroke-opacity:1;filter:url(#filter1841)"
         transform="matrix(0.53349929,0,0,0.56756434,-214.89349,-227.48475)" />
      <path
         d="m 628,792.8 c -13.5,-3.8 -18.7,-21.5 -8.9,-30.5 6.2,-5.6 1.8,-5.4 106.8,-5.5 90.1,-0.1 96.9,0.1 100.1,1.7 7.7,3.9 11,8.8 11,16.3 0,10.3 -5.1,16.2 -15.4,18.1 -7.8,1.4 -188.5,1.4 -193.6,-0.1 z"
         id="path1797-1"
         style="fill:#ffffff;stroke:#000000;stroke-width:8.79934;stroke-opacity:1;filter:url(#filter1841)"
         transform="matrix(0.01638829,0,0,0.09488689,82.21683,11.669713)" />
      <ellipse
         style="fill:none;fill-opacity:1;stroke:#000000;stroke-width:13.1147;stroke-miterlimit:4;stroke-dasharray:none;stroke-opacity:1"
         id="path1912"
         cx="100.90671"
         cy="156.84531"
         rx="124.58143"
         ry="123.34489" />
    </g>
  </g>
</svg>
